<?xml version="1.0" encoding="UTF-8" standalone="no"?>
<svg
   version="1.0"
   width="594.000000pt"
   height="594.000000pt"
   viewBox="0 0 594.000000 594.000000"
   preserveAspectRatio="xMidYMid meet"
   id="svg16"
   sodipodi:docname="favicon.svg"
   inkscape:version="1.4.3 (0d15f75042, 2025-12-25)"
   xmlns:inkscape="http://www.inkscape.org/namespaces/inkscape"
   xmlns:sodipodi="http://sodipodi.sourceforge.net/DTD/sodipodi-0.dtd"
   xmlns="http://www.w3.org/2000/svg"
   xmlns:svg="http://www.w3.org/2000/svg">
  <defs
     id="defs16" />
  <sodipodi:namedview
     id="namedview16"
     pagecolor="#ffffff"
     bordercolor="#999999"
     borderopacity="1"
     inkscape:showpageshadow="2"
     inkscape:pageopacity="0"
     inkscape:pagecheckerboard="0"
     inkscape:deskcolor="#d1d1d1"
     inkscape:document-units="pt"
     inkscape:zoom="0.93740136"
     inkscape:cx="500.31931"
     inkscape:cy="473.11645"
     inkscape:window-width="1860"
     inkscape:window-height="1164"
     inkscape:window-x="0"
     inkscape:window-y="0"
     inkscape:window-maximized="0"
     inkscape:current-layer="svg16" />
  <g
     transform="matrix(0.12626472,0,0,-0.12626472,-74.501374,666.81018)"
     fill="#000000"
     stroke="none"
     id="g16">
    <path
       d="M 2785,5274 C 2317,5237 1904,5083 1532,4808 1425,4729 1215,4528 1130,4425 846,4076 672,3669 609,3200 c -18,-133 -15,-449 5,-585 53,-354 182,-696 367,-973 101,-153 168,-235 291,-360 186,-189 376,-328 613,-447 315,-160 632,-240 990,-252 387,-12 739,64 1090,237 536,263 924,677 1150,1228 129,317 192,704 167,1030 -32,416 -153,784 -366,1120 -121,190 -318,413 -492,553 -333,272 -761,455 -1184,509 -93,11 -375,20 -455,14 z m 515,-159 c 461,-83 849,-279 1169,-589 419,-408 652,-929 678,-1521 18,-403 -96,-843 -311,-1209 C 4566,1337 4093,965 3585,813 2988,635 2347,713 1812,1029 c -295,175 -584,463 -761,758 -233,392 -346,859 -312,1296 44,568 279,1066 684,1453 338,323 753,521 1232,589 138,20 515,14 645,-10 z"
       id="path1" />
    <path
       d="m 2905,4965 c -25,-24 -25,-25 -25,-220 0,-182 1,-196 20,-215 11,-11 29,-20 40,-20 11,0 29,9 40,20 19,19 20,33 20,219 v 200 l -26,20 c -34,27 -40,26 -69,-4 z"
       id="path2" />
    <path
       d="m 1901,4697 c -15,-19 -11,-30 77,-182 92,-159 102,-171 131,-156 12,7 21,21 21,34 -1,12 -40,87 -88,167 -88,147 -113,170 -141,137 z"
       id="path3" />
    <path
       d="m 3907,4673 c -69,-111 -157,-272 -157,-286 0,-9 10,-22 22,-28 29,-16 43,1 142,175 82,145 87,167 38,174 -15,2 -27,-7 -45,-35 z"
       id="path4" />
    <path
       d="m 3783,3879 c -230,-198 -450,-389 -489,-423 l -71,-62 61,-50 c 34,-28 79,-78 101,-111 l 38,-60 117,121 c 625,648 782,814 786,834 15,58 -27,112 -87,112 -36,0 -66,-24 -456,-361 z"
       id="path5" />
    <path
       d="m 1172,3968 c -7,-7 -12,-21 -12,-33 0,-16 32,-40 148,-107 81,-48 154,-90 163,-93 20,-7 51,21 47,43 -2,13 -310,202 -328,202 -4,0 -11,-5 -18,-12 z"
       id="path6" />
    <path
       d="m 4658,3961 c -102,-53 -284,-163 -290,-175 -10,-18 -1,-43 19,-50 19,-8 320,161 334,186 11,20 3,44 -16,52 -7,2 -28,-3 -47,-13 z"
       id="path7" />
    <path
       d="m 1835,3751 c -61,-25 -79,-109 -35,-156 14,-15 158,-139 321,-275 l 296,-247 26,61 c 15,34 52,94 82,133 l 54,71 -197,123 c -532,331 -494,311 -547,290 z"
       id="path8" />
    <path
       d="m 2855,3091 c -107,-66 -129,-198 -47,-284 39,-42 75,-57 132,-57 58,0 93,15 131,57 39,42 49,66 49,123 0,28 -5,61 -11,73 -17,32 -60,77 -91,93 -39,20 -127,18 -163,-5 z"
       id="path9" />
    <path
       d="m 907,2972 c -24,-26 -21,-68 5,-86 18,-13 57,-16 215,-16 180,0 194,1 213,20 11,11 20,29 20,40 0,11 -9,29 -20,40 -19,19 -33,20 -218,20 -180,0 -200,-2 -215,-18 z"
       id="path10" />
    <path
       d="m 4540,2970 c -11,-11 -20,-29 -20,-40 0,-11 9,-29 20,-40 19,-19 33,-20 218,-20 180,0 200,2 215,18 24,26 21,68 -5,86 -18,13 -57,16 -215,16 -180,0 -194,-1 -213,-20 z"
       id="path11" />
    <path
       d="m 1325,2045 c -82,-47 -155,-93 -162,-102 -15,-20 0,-53 25,-53 22,0 302,157 320,178 6,9 12,19 12,23 0,9 -29,39 -38,39 -4,0 -74,-39 -157,-85 z"
       id="path12" />
    <path
       d="m 4376,2115 c -18,-18 -19,-25 -8,-42 11,-18 303,-183 324,-183 23,0 43,37 29,54 -11,13 -280,169 -312,181 -9,3 -24,-1 -33,-10 z"
       id="path13" />
    <path
       d="m 2062,1483 c -18,-27 -132,-222 -158,-272 -16,-31 -2,-61 29,-61 18,0 38,28 110,153 48,84 87,159 87,168 0,18 -19,39 -36,39 -7,0 -21,-12 -32,-27 z"
       id="path14" />
    <path
       d="m 3762,1498 c -7,-7 -12,-19 -12,-27 0,-23 162,-302 183,-315 22,-14 53,4 50,30 -2,19 -147,278 -173,308 -15,19 -32,20 -48,4 z"
       id="path15" />
    <path
       d="m 2896,1328 c -13,-18 -16,-57 -16,-213 0,-213 6,-235 60,-235 54,0 60,22 60,235 0,213 -6,235 -60,235 -18,0 -34,-8 -44,-22 z"
       id="path16" />
  </g>
</svg>
