<?xml version="1.0" encoding="UTF-8" standalone="no"?>
<svg
   version="1.0"
   width="540.09119pt"
   height="544.22089pt"
   viewBox="0 0 540.09119 544.22089"
   preserveAspectRatio="xMidYMid"
   id="svg6"
   sodipodi:docname="focused.svg"
   inkscape:version="1.4.3 (0d15f75042, 2025-12-25)"
   xmlns:inkscape="http://www.inkscape.org/namespaces/inkscape"
   xmlns:sodipodi="http://sodipodi.sourceforge.net/DTD/sodipodi-0.dtd"
   xmlns="http://www.w3.org/2000/svg"
   xmlns:svg="http://www.w3.org/2000/svg">
  <defs
     id="defs6" />
  <sodipodi:namedview
     id="namedview6"
     pagecolor="#ffffff"
     bordercolor="#999999"
     borderopacity="1"
     inkscape:showpageshadow="2"
     inkscape:pageopacity="0"
     inkscape:pagecheckerboard="0"
     inkscape:deskcolor="#d1d1d1"
     inkscape:document-units="pt"
     inkscape:zoom="0.76282475"
     inkscape:cx="458.16552"
     inkscape:cy="416.21618"
     inkscape:window-width="1860"
     inkscape:window-height="1164"
     inkscape:window-x="0"
     inkscape:window-y="0"
     inkscape:window-maximized="0"
     inkscape:current-layer="svg6">
    <inkscape:page
       x="0"
       y="0"
       width="540.09119"
       height="544.22089"
       id="page2"
       margin="0"
       bleed="0" />
  </sodipodi:namedview>
  <rect
     style="fill:#00ff00;stroke:#00ff00;stroke-width:48;stroke-dasharray:none;fill-opacity:0.60000002;stroke-opacity:0.60000002;stroke-dashoffset:0"
     id="rect6"
     width="490.66611"
     height="494.51709"
     x="24.115049"
     y="24.115049"
     rx="98.698776"
     ry="89.926552" />
  <g
     transform="matrix(0.10440441,0,0,-0.10440441,-34.648423,580.99124)"
     fill="#000000"
     stroke="none"
     id="g6">
    <path
       d="M 2690,5414 C 2120,5345 1668,5144 1263,4778 1002,4543 777,4225 648,3910 527,3616 473,3354 463,3025 c -12,-416 66,-773 246,-1140 133,-268 283,-477 487,-676 413,-401 916,-638 1481,-699 162,-18 485,-8 638,19 519,92 980,330 1347,696 317,314 534,699 648,1144 53,208 64,311 65,586 0,284 -11,378 -74,629 -216,857 -907,1543 -1778,1765 -193,49 -308,63 -558,66 -132,2 -256,1 -275,-1 z m 511,-410 c 1020,-143 1786,-1022 1781,-2044 -2,-343 -74,-642 -227,-936 -212,-409 -527,-718 -940,-920 -736,-359 -1585,-250 -2227,286 -389,325 -660,830 -719,1339 -17,150 -7,445 21,591 129,691 576,1254 1219,1535 213,93 417,141 716,169 67,6 264,-4 376,-20 z"
       id="path1"
       style="fill:#2462ea;fill-opacity:1" />
    <path
       d="m 2856,4869 -26,-31 v -250 -250 l 29,-29 c 31,-31 67,-37 104,-17 45,24 46,31 47,291 0,302 -4,317 -95,317 -25,0 -40,-8 -59,-31 z"
       id="path2"
       style="fill:#2462ea;fill-opacity:1" />
    <path
       d="m 4098,4167 c -20,-12 -264,-224 -543,-472 -376,-334 -513,-449 -529,-447 -107,14 -142,13 -196,-3 l -58,-17 -238,162 c -132,89 -276,187 -321,218 -172,118 -183,124 -237,118 -27,-3 -59,-12 -73,-21 -35,-23 -63,-75 -63,-116 0,-73 3,-76 614,-493 l 173,-118 6,-57 c 21,-237 325,-343 495,-173 52,53 83,128 83,206 l 1,66 91,83 c 51,46 261,233 467,416 206,184 404,361 439,395 89,85 107,134 75,202 -33,70 -117,93 -186,51 z"
       id="path3"
       style="fill:#2462ea;fill-opacity:1" />
    <path
       d="m 1242,3051 c -220,-6 -224,-6 -243,-30 -28,-34 -25,-96 6,-126 l 24,-25 h 260 259 l 26,31 c 34,40 34,81 -1,118 -35,37 -49,39 -331,32 z"
       id="path4"
       style="fill:#2462ea;fill-opacity:1" />
    <path
       d="m 4453,3053 -162,-3 -25,-31 c -35,-41 -34,-83 3,-120 l 29,-29 h 255 c 242,0 256,1 281,21 22,17 26,29 26,68 0,76 -23,91 -146,95 -54,1 -172,1 -261,-1 z"
       id="path5"
       style="fill:#2462ea;fill-opacity:1" />
    <path
       d="m 2861,1614 -31,-26 v -263 -263 l 31,-26 c 17,-15 43,-26 59,-26 16,0 42,11 59,26 l 31,26 v 263 263 l -31,26 c -17,15 -43,26 -59,26 -16,0 -42,-11 -59,-26 z"
       id="path6"
       style="fill:#2462ea;fill-opacity:1" />
  </g>
</svg>
